<svg xmlns="http://www.w3.org/2000/svg" viewBox="0 0 512 512">
  <defs>
    <linearGradient id="bg" x1="0" y1="0" x2="1" y2="1">
      <stop offset="0" stop-color="#18243a"/>
      <stop offset="1" stop-color="#0d1423"/>
    </linearGradient>
    <linearGradient id="page" x1="0" y1="0" x2="0" y2="1">
      <stop offset="0" stop-color="#fffdf7"/>
      <stop offset="1" stop-color="#eee4d2"/>
    </linearGradient>
  </defs>
  <rect width="512" height="512" rx="112" fill="url(#bg)"/>
  <path d="M112 135c60-17 111-4 144 37 33-41 84-54 144-37v249c-59-13-108 0-144 41-36-41-85-54-144-41V135Z" fill="url(#page)"/>
  <path d="M256 172v253" fill="none" stroke="#c39352" stroke-width="18" stroke-linecap="round"/>
  <path d="M149 208h69M149 251h69M294 208h69M294 251h69M149 294h69M294 294h69" fill="none" stroke="#44516a" stroke-width="15" stroke-linecap="round"/>
  <path d="m370 94 13 27 29 5-21 21 5 29-26-14-26 14 5-29-21-21 29-5 13-27Z" fill="#efc87e"/>
</svg>
